<?xml version="1.0" encoding="UTF-8" standalone="yes"?>
<!DOCTYPE svg PUBLIC "-//W3C//DTD SVG 1.1//EN" "http://www.w3.org/Graphics/SVG/1.1/DTD/svg11.dtd">

<svg width="500" height="180" viewBox="0 0 500 180" xmlns="http://www.w3.org/2000/svg" xmlns:xlink="http://www.w3.org/1999/xlink" version="1.1" baseProfile="full">
    <g transform="scale(1,-1) translate(0,-180)">
        <path d="M 1.000000 1.472253 L 4.254040 1.472253 L 4.254040 11.967356 L 10.131032 11.967356 C 10.364992 11.967356 10.589721 11.967356 10.811397 11.980471 L 16.479021 1.472253 L 20.256411 1.472253 L 14.182405 12.570817 C 17.608868 13.738422 19.209711 16.532743 19.209711 20.101076 C 19.209711 24.850101 16.374360 28.339715 10.078678 28.339715 L 1.000000 28.339715 L 1.000000 1.472253 Z M 4.254040 14.905999 L 4.254040 25.453561 L 9.974018 25.453561 C 14.327112 25.453561 16.008001 23.328305 16.008001 20.101076 C 16.008001 16.873818 14.327112 14.905999 10.026348 14.905999 L 4.254040 14.905999 Z M 36.908379 9.710922 C 36.908379 5.932786 34.023751 4.201093 31.714828 4.201093 C 29.144230 4.201093 27.306326 6.090100 27.306326 9.028742 L 27.306326 21.622843 L 24.209301 21.622843 L 24.209301 8.818816 C 24.209301 3.676199 26.939991 1.209958 30.717381 1.209958 C 33.762076 1.209958 35.753917 2.836673 36.699034 4.883302 L 36.908379 4.883302 L 36.908379 1.472253 L 40.005404 1.472253 L 40.005404 21.622843 L 36.908379 21.622843 L 36.908379 9.710922 Z M 59.948358 17.109974 C 58.978602 19.969869 56.802055 21.885228 52.812243 21.885228 C 48.560732 21.885228 45.414453 19.471357 45.414453 16.060461 C 45.414453 13.279255 47.067650 11.416355 50.764995 10.550509 L 54.123719 9.763381 C 56.158636 9.291099 57.116084 8.320304 57.116084 6.929625 C 57.116084 5.197933 55.278181 3.781176 52.393554 3.781176 C 49.859901 3.781176 48.274442 4.870064 47.723377 7.034603 L 44.783342 6.300058 C 45.503730 2.876079 48.326773 1.052336 52.445884 1.052336 C 57.128392 1.052336 60.317770 3.610624 60.317770 7.087247 C 60.317770 9.894589 58.559913 11.665626 54.964152 12.544587 L 51.971787 13.279255 C 49.585895 13.869601 48.508402 14.669843 48.508402 16.217868 C 48.508402 17.949561 50.346305 19.208971 52.812243 19.208971 C 55.515218 19.208971 56.629656 17.713434 57.168414 16.322817 L 59.948358 17.109974 Z M 79.250969 17.109974 C 78.278113 19.969869 76.101566 21.885228 72.114831 21.885228 C 67.863344 21.885228 64.713988 19.471357 64.713988 16.060461 C 64.713988 13.279255 66.367138 11.416355 70.067606 10.550509 L 73.426284 9.763381 C 75.458147 9.291099 76.415595 8.320304 76.415595 6.929625 C 76.415595 5.197933 74.580745 3.781176 71.693088 3.781176 C 69.162489 3.781176 67.573977 4.870064 67.022911 7.034603 L 64.085930 6.300058 C 64.806341 2.876079 67.626307 1.052336 71.745418 1.052336 C 76.431003 1.052336 79.617281 3.610624 79.617281 7.087247 C 79.617281 9.894589 77.859424 11.665626 74.263663 12.544587 L 71.274398 13.279255 C 68.885430 13.869601 67.811014 14.669843 67.811014 16.217868 C 67.811014 17.949561 69.645816 19.208971 72.114831 19.208971 C 74.814729 19.208971 75.932268 17.713434 76.467926 16.322817 L 79.250969 17.109974 Z M 84.278251 1.472253 L 87.375277 1.472253 L 87.375277 21.622843 L 84.278251 21.622843 L 84.278251 1.472253 Z M 85.851402 24.981279 C 87.058194 24.981279 88.055665 25.925844 88.055665 27.080305 C 88.055665 28.234767 87.058194 29.179332 85.851402 29.179332 C 84.644610 29.179332 83.647140 28.234767 83.647140 27.080305 C 83.647140 25.925844 84.644610 24.981279 85.851402 24.981279 Z M 98.975324 1.000000 C 102.491039 1.000000 104.325842 2.889009 104.956953 4.201093 L 105.113991 4.201093 L 105.113991 1.472253 L 108.211017 1.472253 L 108.211017 14.748562 C 108.211017 21.150589 103.331471 21.885228 100.757796 21.885228 C 97.716201 21.885228 94.252816 20.835715 92.676565 17.162433 L 95.616599 16.112920 C 96.296941 17.582227 97.913215 19.156511 100.862457 19.156511 C 103.710138 19.156511 105.113991 17.647831 105.113991 15.063407 L 105.113991 14.958458 C 105.113991 13.462922 103.593170 13.594100 99.920417 13.121818 C 96.179973 12.636420 92.100884 11.809919 92.100884 7.192225 C 92.100884 3.256282 95.142479 1.000000 98.975324 1.000000 Z M 99.446344 3.781176 C 96.980382 3.781176 95.194856 4.883302 95.194856 7.034603 C 95.194856 9.396047 97.346742 10.130715 99.760326 10.445560 C 101.074879 10.602998 104.590594 10.970332 105.113991 11.600022 L 105.113991 8.766357 C 105.113991 6.247413 103.119050 3.781176 99.446344 3.781176 Z" transform="scale(1.000000,1.000000) translate(388.892660,111.690814)" fill="#fffefe" opacity="1.000000"></path>
        <path d="M 57.437118 62.628546 L 44.812508 62.628546 L 29.552855 16.141666 L 28.923591 16.141666 L 13.624610 62.628546 L 1.000000 62.628546 L 22.945583 2.219199 L 35.530864 2.219199 Z M 69.432523 82.764995 L 69.432523 2.219199 L 80.995250 2.219199 L 80.995250 60.544109 L 81.742501 60.544109 L 105.497218 2.337186 L 115.093495 2.337186 L 138.848212 60.504780 L 139.595463 60.504780 L 139.595463 2.219199 L 151.158189 2.219199 L 151.158189 82.764995 L 136.409814 82.764995 L 110.767304 20.153224 L 109.823408 20.153224 L 84.180899 82.764995 Z M 193.948238 1.000000 C 207.123454 1.000000 216.444428 7.489285 219.118800 17.321536 L 207.988692 19.327315 C 205.864926 13.624610 200.752156 10.714263 194.066225 10.714263 C 183.998001 10.714263 177.233413 17.242878 176.918781 28.884262 L 219.866051 28.884262 L 219.866051 33.053137 C 219.866051 54.880733 206.808822 63.415126 193.122329 63.415126 C 176.289517 63.415126 165.198738 50.593872 165.198738 32.030583 C 165.198738 13.270649 176.132201 1.000000 193.948238 1.000000 Z M 176.958110 37.693959 C 177.430058 46.267681 183.644040 53.700863 193.200987 53.700863 C 202.325316 53.700863 208.303324 46.936274 208.342653 37.693959 Z M 278.230352 47.880170 C 275.791954 57.279802 268.437430 63.415126 255.380202 63.415126 C 241.733038 63.415126 232.058103 56.217919 232.058103 45.520430 C 232.058103 36.946708 237.249532 31.244003 248.576284 28.726946 L 258.801825 26.485193 C 264.622517 25.187336 267.336218 22.591622 267.336218 18.816038 C 267.336218 14.135887 262.341435 10.478289 254.632951 10.478289 C 247.593059 10.478289 243.070224 13.506623 241.654380 19.445302 L 230.288298 17.714826 C 232.254748 7.017337 241.143103 1.000000 254.711609 1.000000 C 269.302668 1.000000 279.410222 8.747813 279.410222 19.681276 C 279.410222 28.215669 273.982820 33.485756 262.892041 36.042141 L 253.295765 38.244565 C 246.649163 39.817725 243.778146 42.059478 243.817475 46.149694 C 243.778146 50.790517 248.812258 54.094153 255.498189 54.094153 C 262.813383 54.094153 266.195677 50.043265 267.572192 45.992378 Z M 320.509086 62.628546 L 308.120450 62.628546 L 308.120450 77.101619 L 296.361078 77.101619 L 296.361078 62.628546 L 287.512053 62.628546 L 287.512053 53.189586 L 296.361078 53.189586 L 296.361078 17.518181 C 296.321749 6.545389 304.698827 1.235974 313.980471 1.432619 C 317.716726 1.471948 320.233783 2.179870 321.610298 2.691147 L 319.486531 12.405411 C 318.699951 12.248095 317.244778 11.894134 315.356986 11.894134 C 311.542073 11.894134 308.120450 13.152662 308.120450 19.956579 L 308.120450 53.189586 L 320.509086 53.189586 Z M 358.933560 1.000000 C 375.963018 1.000000 387.093125 13.467294 387.093125 32.148570 C 387.093125 50.947833 375.963018 63.415126 358.933560 63.415126 C 341.904102 63.415126 330.773994 50.947833 330.773994 32.148570 C 330.773994 13.467294 341.904102 1.000000 358.933560 1.000000 Z M 358.972889 10.871580 C 347.842781 10.871580 342.651353 20.585843 342.651353 32.187899 C 342.651353 43.750625 347.842781 53.582876 358.972889 53.582876 C 370.024338 53.582876 375.215767 43.750625 375.215767 32.187899 C 375.215767 20.585843 370.024338 10.871580 358.972889 10.871580 Z" transform="scale(1.000000,1.000000) translate(2.799535,37.634715)" fill="#fffefe" opacity="1.000000"></path>
    </g>
</svg>