<?xml version="1.0" encoding="UTF-8" standalone="yes"?>
<!DOCTYPE svg PUBLIC "-//W3C//DTD SVG 1.1//EN" "http://www.w3.org/Graphics/SVG/1.1/DTD/svg11.dtd">

<svg width="500" height="200" viewBox="0 0 500 200" xmlns="http://www.w3.org/2000/svg" xmlns:xlink="http://www.w3.org/1999/xlink" version="1.1" baseProfile="full">
    <g transform="scale(1,-1) translate(0,-200)">
        <path d="M 1.000000 1.520176 L 11.692510 1.520176 C 18.685989 1.520176 21.575857 4.930220 21.575857 9.380616 C 21.575857 14.062201 18.339205 16.605285 15.622730 16.778677 L 15.622730 17.067663 C 18.165813 17.761232 20.419910 19.437355 20.419910 23.251980 C 20.419910 27.586781 17.530042 31.112420 11.345726 31.112420 L 1.000000 31.112420 Z M 4.583436 4.699030 L 4.583436 14.986959 L 11.865902 14.986959 C 15.738324 14.986959 18.165813 12.386078 18.165813 9.380616 C 18.165813 6.779735 16.374095 4.699030 11.692510 4.699030 Z M 4.583436 18.108016 L 4.583436 27.933565 L 11.345726 27.933565 C 15.275946 27.933565 17.009866 25.852861 17.009866 23.251980 C 17.009866 20.130923 14.466783 18.108016 11.230131 18.108016 Z M 36.314206 1.057797 C 40.822400 1.057797 44.116849 3.311894 45.157201 6.664140 L 41.862752 7.588898 C 40.995792 5.277004 38.987334 4.121057 36.314206 4.121057 C 32.311740 4.121057 29.551916 6.707488 29.392974 11.461320 L 45.503985 11.461320 L 45.503985 12.906254 C 45.503985 21.171275 40.591210 24.003345 35.967422 24.003345 C 29.956498 24.003345 25.968481 19.263963 25.968481 12.443875 C 25.968481 5.623788 29.898700 1.057797 36.314206 1.057797 Z M 29.392974 14.408985 C 29.624163 17.862377 32.066101 20.940086 35.967422 20.940086 C 39.666453 20.940086 42.036144 18.165813 42.036144 14.408985 Z M 60.357927 23.714359 L 55.618544 23.714359 L 55.618544 29.031715 L 52.208500 29.031715 L 52.208500 23.714359 L 48.856254 23.714359 L 48.856254 20.824491 L 52.208500 20.824491 L 52.208500 6.953127 C 52.208500 3.080705 55.329557 1.231189 58.219425 1.231189 C 59.490966 1.231189 60.300129 1.462379 60.762508 1.635771 L 60.068940 4.699030 C 59.779953 4.641233 59.317574 4.525638 58.566209 4.525638 C 57.063478 4.525638 55.618544 4.988017 55.618544 7.877885 L 55.618544 20.824491 L 60.357927 20.824491 Z M 72.033006 1.000000 C 75.905428 1.000000 77.928335 3.080705 78.621903 4.525638 L 78.795296 4.525638 L 78.795296 1.520176 L 82.205339 1.520176 L 82.205339 16.142906 C 82.205339 23.194183 76.830186 24.003345 73.998115 24.003345 C 70.645869 24.003345 66.831244 22.847398 65.097323 18.801584 L 68.333975 17.645637 C 69.085341 19.263963 70.862609 20.997883 74.113710 20.997883 C 77.249216 20.997883 78.795296 19.336209 78.795296 16.489690 L 78.795296 16.374095 C 78.795296 14.726871 77.119172 14.871364 73.073358 14.351188 C 68.955297 13.816562 64.461553 12.906254 64.461553 7.820087 C 64.461553 3.485286 67.813799 1.000000 72.033006 1.000000 Z M 72.553182 4.063260 C 69.836706 4.063260 67.871596 5.277004 67.871596 7.646695 C 67.871596 10.247576 70.241288 11.056739 72.899966 11.403523 C 74.344900 11.576915 78.217322 11.981497 78.795296 12.675065 L 78.795296 9.554008 C 78.795296 6.779735 76.598996 4.063260 72.553182 4.063260 Z" transform="scale(1.000000,1.000000) translate(407.736013,118.414913)" fill="#fefdfd" opacity="1.000000"></path>
        <path d="M 59.189025 64.541605 L 46.172524 64.541605 L 30.439185 16.611690 L 29.790389 16.611690 L 14.016500 64.541605 L 1.000000 64.541605 L 23.626812 2.257045 L 36.602763 2.257045 Z M 71.556790 85.303119 L 71.556790 2.257045 L 83.478439 2.257045 L 83.478439 62.392462 L 84.248888 62.392462 L 108.740991 2.378695 L 118.635159 2.378695 L 143.127254 62.351912 L 143.897703 62.351912 L 143.897703 2.257045 L 155.819359 2.257045 L 155.819359 85.303119 L 140.613177 85.303119 L 114.174672 20.747774 L 113.201478 20.747774 L 86.762981 85.303119 Z M 199.937692 1.000000 C 213.521890 1.000000 223.132198 7.690724 225.889592 17.828184 L 214.413983 19.896226 C 212.224293 14.016500 206.952806 11.015811 200.059335 11.015811 C 189.678578 11.015811 182.704006 17.747085 182.379603 29.749838 L 226.660042 29.749838 L 226.660042 34.048124 C 226.660042 56.553285 213.197487 65.352601 199.086141 65.352601 C 181.730812 65.352601 170.295745 52.133352 170.295745 32.993826 C 170.295745 13.651551 181.568611 1.000000 199.937692 1.000000 Z M 182.420161 38.833003 C 182.906750 47.672869 189.313632 55.336789 199.167242 55.336789 C 208.574806 55.336789 214.738386 48.362217 214.778928 38.833003 Z M 286.836059 49.335411 C 284.321983 59.026823 276.739163 65.352601 263.276608 65.352601 C 249.205805 65.352601 239.230551 57.931979 239.230551 46.902423 C 239.230551 38.062557 244.583124 32.182830 256.261477 29.587639 L 266.804436 27.276298 C 272.805830 25.938153 275.603752 23.261863 275.603752 19.369079 C 275.603752 14.543648 270.453924 10.772511 262.506158 10.772511 C 255.247741 10.772511 250.584502 13.894851 249.124704 20.017875 L 237.405808 18.233684 C 239.433295 7.204125 248.597557 1.000000 262.587259 1.000000 C 277.631255 1.000000 288.052555 8.988319 288.052555 20.261176 C 288.052555 29.060491 282.456681 34.494170 271.021613 37.129910 L 261.127461 39.400700 C 254.274548 41.022696 251.314409 43.334036 251.354952 47.551218 C 251.314409 52.336100 256.504780 55.742289 263.398251 55.742289 C 270.940528 55.742289 274.427814 51.565655 275.847070 47.389020 Z M 330.427213 64.541605 L 317.654006 64.541605 L 317.654006 79.463943 L 305.529606 79.463943 L 305.529606 64.541605 L 296.405887 64.541605 L 296.405887 54.809642 L 305.529606 54.809642 L 305.529606 18.030934 C 305.489048 6.717528 314.126162 1.243299 323.695927 1.446048 C 327.548175 1.486598 330.143368 2.216495 331.562592 2.743643 L 329.372919 12.759455 C 328.561911 12.597255 327.061570 12.232306 325.115183 12.232306 C 321.181851 12.232306 317.654006 13.529902 317.654006 20.545024 L 317.654006 54.809642 L 330.427213 54.809642 Z M 370.044444 1.000000 C 387.602517 1.000000 399.078143 13.854300 399.078143 33.115477 C 399.078143 52.498302 387.602517 65.352601 370.044444 65.352601 C 352.486371 65.352601 341.010746 52.498302 341.010746 33.115477 C 341.010746 13.854300 352.486371 1.000000 370.044444 1.000000 Z M 370.085002 11.178011 C 358.609377 11.178011 353.256820 21.193821 353.256820 33.156027 C 353.256820 45.077679 358.609377 55.215138 370.085002 55.215138 C 381.479511 55.215138 386.832068 45.077679 386.832068 33.156027 C 386.832068 21.193821 381.479511 11.178011 370.085002 11.178011 Z" transform="scale(1.000000,1.000000) translate(9.653855,43.986242)" fill="#fefdfd" opacity="1.000000"></path>
    </g>
</svg>